<svg width="1200" height="600" viewBox="0 0 1200 600" xmlns="http://www.w3.org/2000/svg">
  <defs>
    <linearGradient id="g1" x1="0" y1="0" x2="1" y2="1">
      <stop offset="0%" stop-color="#0c1a36" />
      <stop offset="100%" stop-color="#1e73ba" />
    </linearGradient>
  </defs>
  <rect width="1200" height="600" fill="url(#g1)" />
  <g stroke="#7dd3fc" stroke-opacity="0.4" fill="none">
    <path d="M0 520 Q 300 440 600 520 T 1200 520" stroke-width="2" />
    <path d="M0 560 Q 300 480 600 560 T 1200 560" stroke-width="2" />
  </g>
  <g fill="#0ea5e9" fill-opacity="0.14">
    <circle cx="160" cy="120" r="120" />
    <circle cx="1020" cy="120" r="150" />
  </g>
  <g transform="translate(200,90)" fill="#e2e8f0" stroke="#f8fafc" stroke-width="6" opacity="0.95">
    <rect x="0" y="0" width="160" height="400" rx="28" fill="#0f172a" stroke="#0ea5e9" stroke-width="4"/>
    <rect x="220" y="0" width="160" height="400" rx="28" fill="#0f172a" stroke="#38bdf8" stroke-width="4"/>
    <rect x="440" y="0" width="160" height="400" rx="28" fill="#0f172a" stroke="#38bdf8" stroke-width="4"/>
    <rect x="660" y="0" width="160" height="400" rx="28" fill="#0f172a" stroke="#38bdf8" stroke-width="4"/>
  </g>
  <g fill="#f8fafc" opacity="0.9">
    <rect x="250" y="180" width="100" height="16" rx="8" />
    <rect x="250" y="210" width="120" height="16" rx="8" />
    <rect x="470" y="180" width="100" height="16" rx="8" />
    <rect x="470" y="210" width="120" height="16" rx="8" />
    <rect x="690" y="180" width="100" height="16" rx="8" />
    <rect x="690" y="210" width="120" height="16" rx="8" />
    <rect x="910" y="180" width="100" height="16" rx="8" />
    <rect x="910" y="210" width="120" height="16" rx="8" />
  </g>
</svg>
