<svg width="1600" height="900" viewBox="0 0 1600 900" fill="none" xmlns="http://www.w3.org/2000/svg">
  <defs>
    <linearGradient id="bg" x1="0" y1="0" x2="1" y2="1">
      <stop stop-color="#0b1220" offset="0" />
      <stop stop-color="#111b33" offset="1" />
    </linearGradient>
    <linearGradient id="card" x1="0" y1="0" x2="1" y2="1">
      <stop stop-color="#121c30" offset="0" />
      <stop stop-color="#060a14" offset="1" />
    </linearGradient>
    <linearGradient id="glow" x1="0" y1="0" x2="0" y2="1">
      <stop stop-color="#48c0ff" stop-opacity="0.9" offset="0" />
      <stop stop-color="#0b5cff" stop-opacity="0.2" offset="1" />
    </linearGradient>
    <radialGradient id="halo" cx="50%" cy="50%" r="60%">
      <stop stop-color="#0b5cff" stop-opacity="0.35" offset="0" />
      <stop stop-color="#0b5cff" stop-opacity="0" offset="1" />
    </radialGradient>
  </defs>
  <rect width="1600" height="900" fill="url(#bg)" />
  <rect x="200" y="180" width="1200" height="520" rx="36" fill="#0f1627" opacity="0.55" />
  <rect x="180" y="220" width="1240" height="460" rx="40" fill="#0d1524" opacity="0.8" stroke="#182642" />
  <g filter="url(#shadow-phone)">
    <rect x="560" y="140" width="500" height="860" rx="70" fill="url(#card)" stroke="#1f2d4f" stroke-width="3" />
  </g>
  <rect x="590" y="190" width="440" height="760" rx="52" fill="#0c1424" stroke="#263556" />
  <rect x="620" y="220" width="380" height="700" rx="44" fill="#0f1f38" stroke="#2a3b60" />
  <rect x="644" y="244" width="332" height="646" rx="36" fill="#111a2b" />
  <rect x="644" y="244" width="332" height="646" rx="36" fill="url(#halo)" />
  <rect x="735" y="202" width="150" height="10" rx="5" fill="#0c1422" />
  <rect x="840" y="202" width="60" height="10" rx="5" fill="#18243c" />
  <g transform="translate(672,270)">
    <rect width="276" height="276" rx="32" fill="#121d31" stroke="#2a3b60" />
    <g transform="translate(24,24)">
      <rect width="60" height="60" rx="16" fill="#0b5cff" />
      <circle cx="30" cy="30" r="16" fill="#dfe8ff" />
      <path d="M20 30h20" stroke="#0b5cff" stroke-width="6" stroke-linecap="round" />
      <path d="M30 20v20" stroke="#0b5cff" stroke-width="6" stroke-linecap="round" />
    </g>
    <g transform="translate(116,24)">
      <rect width="60" height="60" rx="16" fill="#10b981" />
      <path d="M18 30l10 10 14-20" stroke="#0f172a" stroke-width="6" stroke-linecap="round" stroke-linejoin="round" />
    </g>
    <g transform="translate(208,24)">
      <rect width="60" height="60" rx="16" fill="#f97316" />
      <path d="M16 36c4-10 8-10 12 0s8 10 12 0" stroke="#0f172a" stroke-width="6" stroke-linecap="round" />
    </g>
    <g transform="translate(24,116)">
      <rect width="60" height="60" rx="16" fill="#6366f1" />
      <path d="M18 38c6-12 10-12 16 0s10 12 16 0" stroke="#e0e7ff" stroke-width="6" stroke-linecap="round" />
    </g>
    <g transform="translate(116,116)">
      <rect width="60" height="60" rx="16" fill="#06b6d4" />
      <circle cx="30" cy="30" r="16" fill="#ecfeff" />
      <path d="M30 18v24M18 30h24" stroke="#06b6d4" stroke-width="6" stroke-linecap="round" />
    </g>
    <g transform="translate(208,116)">
      <rect width="60" height="60" rx="16" fill="#f43f5e" />
      <path d="M20 34c4-8 8-8 12 0s8 8 12 0" stroke="#fee2e2" stroke-width="6" stroke-linecap="round" />
    </g>
    <g transform="translate(24,208)">
      <rect width="60" height="60" rx="16" fill="#14b8a6" />
      <path d="M18 34h24" stroke="#ecfeff" stroke-width="6" stroke-linecap="round" />
      <circle cx="30" cy="26" r="8" fill="#ecfeff" />
    </g>
    <g transform="translate(116,208)">
      <rect width="60" height="60" rx="16" fill="#a855f7" />
      <path d="M20 38c8-14 12-14 20 0" stroke="#f5ecff" stroke-width="6" stroke-linecap="round" />
    </g>
    <g transform="translate(208,208)">
      <rect width="60" height="60" rx="16" fill="#0ea5e9" />
      <path d="M20 24h20l4 12H24Z" stroke="#e0f2fe" stroke-width="6" stroke-linejoin="round" />
    </g>
  </g>
  <g transform="translate(320,700)">
    <rect x="0" y="0" width="960" height="120" rx="18" fill="#0b1324" stroke="#1f2a44" />
    <rect x="20" y="34" width="120" height="32" rx="10" fill="#0f1d33" stroke="#1f2d4f" />
    <rect x="160" y="34" width="120" height="32" rx="10" fill="#0f1d33" stroke="#1f2d4f" />
    <rect x="300" y="34" width="120" height="32" rx="10" fill="#0f1d33" stroke="#1f2d4f" />
    <rect x="440" y="34" width="120" height="32" rx="10" fill="#0f1d33" stroke="#1f2d4f" />
    <rect x="580" y="34" width="120" height="32" rx="10" fill="#0f1d33" stroke="#1f2d4f" />
    <rect x="720" y="34" width="120" height="32" rx="10" fill="#0f1d33" stroke="#1f2d4f" />
  </g>
  <rect x="500" y="100" width="600" height="900" rx="80" fill="url(#glow)" opacity="0.2" />
</svg>
