<svg width="1600" height="900" viewBox="0 0 1600 900" fill="none" xmlns="http://www.w3.org/2000/svg">
  <defs>
    <linearGradient id="bg" x1="0" y1="0" x2="1" y2="1">
      <stop stop-color="#040914" offset="0" />
      <stop stop-color="#0c1424" offset="1" />
    </linearGradient>
    <linearGradient id="glow" x1="0" y1="0" x2="1" y2="0">
      <stop stop-color="#1ec8ff" stop-opacity="0.7" offset="0" />
      <stop stop-color="#0b5cff" stop-opacity="0.2" offset="1" />
    </linearGradient>
  </defs>
  <rect width="1600" height="900" fill="url(#bg)" />
  <rect x="160" y="140" width="1280" height="640" rx="38" fill="#0a1324" stroke="#12305b" opacity="0.8" />
  <rect x="200" y="180" width="1200" height="560" rx="30" fill="#0d1a2f" stroke="#1f365d" />
  <g opacity="0.25">
    <circle cx="400" cy="240" r="180" fill="#0b5cff" />
    <circle cx="1200" cy="420" r="220" fill="#00c2ff" />
    <circle cx="980" cy="260" r="140" fill="#6ee7ff" />
  </g>
  <g transform="translate(260,240)">
    <rect width="340" height="380" rx="22" fill="#0d2038" stroke="#2c4c7a" />
    <rect x="24" y="40" width="292" height="8" rx="4" fill="#1b2d48" />
    <rect x="24" y="64" width="84" height="8" rx="4" fill="#1b2d48" />
    <rect x="24" y="96" width="40" height="220" rx="10" fill="#0ea5e9" />
    <rect x="80" y="140" width="40" height="176" rx="10" fill="#38bdf8" />
    <rect x="136" y="112" width="40" height="204" rx="10" fill="#60a5fa" />
    <rect x="192" y="172" width="40" height="144" rx="10" fill="#a78bfa" />
    <rect x="248" y="204" width="40" height="112" rx="10" fill="#22d3ee" />
    <path d="M28 320c30-44 72-70 118-44 62 34 108 2 144-42" stroke="url(#glow)" stroke-width="10" stroke-linecap="round" />
  </g>
  <g transform="translate(690,220)">
    <rect width="650" height="460" rx="26" fill="#0c1a30" stroke="#264571" />
    <rect x="32" y="60" width="580" height="12" rx="6" fill="#13243f" />
    <rect x="32" y="90" width="160" height="12" rx="6" fill="#13243f" />
    <rect x="32" y="130" width="180" height="220" rx="16" fill="#0c2038" stroke="#1f365d" />
    <path d="M72 320c24-32 54-52 90-44 40 10 72-6 98-34" stroke="#22d3ee" stroke-width="10" stroke-linecap="round" />
    <g transform="translate(250,130)">
      <rect width="350" height="220" rx="16" fill="#0c2038" stroke="#1f365d" />
      <rect x="28" y="40" width="112" height="16" rx="8" fill="#13243f" />
      <rect x="28" y="72" width="180" height="16" rx="8" fill="#13243f" />
      <rect x="28" y="112" width="220" height="16" rx="8" fill="#13243f" />
      <rect x="28" y="152" width="140" height="16" rx="8" fill="#13243f" />
      <circle cx="300" cy="80" r="40" fill="#0ea5e9" opacity="0.7" />
      <path d="M300 40a72 72 0 0 1 60 32l-60 40Z" fill="#38bdf8" />
      <path d="M300 40a72 72 0 0 0-42 130l42-58Z" fill="#60a5fa" />
    </g>
  </g>
  <g transform="translate(1140,620)">
    <rect width="240" height="120" rx="22" fill="#0b182f" stroke="#1f365d" />
    <rect x="24" y="32" width="104" height="12" rx="6" fill="#13243f" />
    <rect x="24" y="56" width="160" height="12" rx="6" fill="#13243f" />
    <rect x="24" y="80" width="190" height="12" rx="6" fill="#13243f" />
  </g>
</svg>
