<svg width="1600" height="900" viewBox="0 0 1600 900" fill="none" xmlns="http://www.w3.org/2000/svg">
  <defs>
    <linearGradient id="bg" x1="0" y1="0" x2="1" y2="1">
      <stop stop-color="#050b16" offset="0" />
      <stop stop-color="#0c1426" offset="1" />
    </linearGradient>
    <linearGradient id="panel" x1="0" y1="0" x2="1" y2="0">
      <stop stop-color="#22d3ee" offset="0" />
      <stop stop-color="#0b5cff" offset="1" />
    </linearGradient>
  </defs>
  <rect width="1600" height="900" fill="url(#bg)" />
  <rect x="160" y="150" width="1280" height="600" rx="40" fill="#0b1528" stroke="#1c3153" opacity="0.85" />
  <g transform="translate(240,210)">
    <rect width="340" height="280" rx="20" fill="#0d1f38" stroke="#21406b" />
    <rect x="26" y="40" width="140" height="12" rx="6" fill="#13243f" />
    <rect x="26" y="70" width="200" height="12" rx="6" fill="#13243f" />
    <rect x="26" y="100" width="240" height="12" rx="6" fill="#13243f" />
    <rect x="26" y="130" width="180" height="12" rx="6" fill="#13243f" />
    <rect x="26" y="160" width="260" height="12" rx="6" fill="#13243f" />
    <rect x="26" y="190" width="210" height="12" rx="6" fill="#13243f" />
  </g>
  <g transform="translate(620,200)">
    <rect width="360" height="320" rx="22" fill="#0d2038" stroke="#21406b" />
    <rect x="30" y="44" width="140" height="16" rx="8" fill="#13243f" />
    <rect x="30" y="74" width="220" height="16" rx="8" fill="#13243f" />
    <rect x="30" y="106" width="260" height="16" rx="8" fill="#13243f" />
    <rect x="30" y="138" width="200" height="16" rx="8" fill="#13243f" />
    <rect x="30" y="170" width="280" height="16" rx="8" fill="#13243f" />
    <rect x="30" y="202" width="160" height="16" rx="8" fill="#13243f" />
    <rect x="30" y="234" width="240" height="16" rx="8" fill="#13243f" />
  </g>
  <g transform="translate(1020,220)">
    <rect width="320" height="280" rx="22" fill="#0d2038" stroke="#21406b" />
    <rect x="30" y="38" width="200" height="14" rx="7" fill="#13243f" />
    <rect x="30" y="62" width="160" height="14" rx="7" fill="#13243f" />
    <rect x="30" y="86" width="200" height="14" rx="7" fill="#13243f" />
    <rect x="30" y="120" width="240" height="14" rx="7" fill="#13243f" />
    <rect x="30" y="150" width="200" height="14" rx="7" fill="#13243f" />
    <rect x="30" y="180" width="240" height="14" rx="7" fill="#13243f" />
    <rect x="30" y="210" width="200" height="14" rx="7" fill="#13243f" />
    <rect x="30" y="240" width="260" height="14" rx="7" fill="#13243f" />
  </g>
  <g transform="translate(1120,500)">
    <rect width="220" height="160" rx="26" fill="#0d2038" stroke="#21406b" />
    <rect x="26" y="40" width="120" height="14" rx="7" fill="#13243f" />
    <rect x="26" y="70" width="170" height="14" rx="7" fill="#13243f" />
    <rect x="26" y="100" width="150" height="14" rx="7" fill="#13243f" />
  </g>
  <g transform="translate(780,460)">
    <rect width="200" height="260" rx="28" fill="#0d2038" stroke="#21406b" />
    <rect x="24" y="34" width="152" height="16" rx="8" fill="#13243f" />
    <rect x="24" y="68" width="120" height="16" rx="8" fill="#13243f" />
    <rect x="24" y="102" width="152" height="16" rx="8" fill="#13243f" />
    <rect x="24" y="136" width="140" height="16" rx="8" fill="#13243f" />
    <rect x="24" y="170" width="120" height="16" rx="8" fill="#13243f" />
    <rect x="24" y="204" width="152" height="16" rx="8" fill="#13243f" />
  </g>
  <g transform="translate(420,480)">
    <rect width="280" height="230" rx="24" fill="#0d2038" stroke="#21406b" />
    <rect x="28" y="40" width="180" height="14" rx="7" fill="#13243f" />
    <rect x="28" y="64" width="120" height="14" rx="7" fill="#13243f" />
    <rect x="28" y="88" width="200" height="14" rx="7" fill="#13243f" />
    <rect x="28" y="112" width="160" height="14" rx="7" fill="#13243f" />
    <rect x="28" y="136" width="200" height="14" rx="7" fill="#13243f" />
    <rect x="28" y="160" width="150" height="14" rx="7" fill="#13243f" />
    <rect x="28" y="184" width="220" height="14" rx="7" fill="#13243f" />
  </g>
  <g transform="translate(280,470)">
    <rect width="120" height="260" rx="28" fill="#0d2038" stroke="#21406b" />
    <rect x="24" y="40" width="72" height="14" rx="7" fill="#13243f" />
    <rect x="24" y="68" width="90" height="14" rx="7" fill="#13243f" />
    <rect x="24" y="96" width="72" height="14" rx="7" fill="#13243f" />
    <rect x="24" y="124" width="90" height="14" rx="7" fill="#13243f" />
    <rect x="24" y="152" width="72" height="14" rx="7" fill="#13243f" />
    <rect x="24" y="180" width="90" height="14" rx="7" fill="#13243f" />
    <rect x="24" y="208" width="72" height="14" rx="7" fill="#13243f" />
  </g>
  <rect x="720" y="120" width="480" height="200" rx="32" fill="#0b5cff" opacity="0.12" />
  <rect x="700" y="92" width="520" height="28" rx="14" fill="#22d3ee" opacity="0.25" />
  <rect x="720" y="644" width="360" height="80" rx="20" fill="#0b1528" stroke="#1c3153" opacity="0.8" />
  <rect x="750" y="672" width="180" height="16" rx="8" fill="#13243f" />
  <rect x="750" y="700" width="120" height="12" rx="6" fill="#13243f" />
</svg>
