<svg width="1200" height="600" viewBox="0 0 1200 600" xmlns="http://www.w3.org/2000/svg">
  <defs>
    <linearGradient id="g3" x1="0" y1="0" x2="1" y2="1">
      <stop offset="0%" stop-color="#102347" />
      <stop offset="100%" stop-color="#1b325f" />
    </linearGradient>
  </defs>
  <rect width="1200" height="600" fill="url(#g3)" />
  <g stroke="#1d4ed8" stroke-opacity="0.35">
    <path d="M0 120 H1200" stroke-width="2" />
    <path d="M0 200 H1200" stroke-width="2" />
    <path d="M0 280 H1200" stroke-width="2" />
    <path d="M0 360 H1200" stroke-width="2" />
    <path d="M0 440 H1200" stroke-width="2" />
  </g>
  <g transform="translate(140,90)">
    <rect x="0" y="0" width="260" height="420" rx="42" fill="#0f172a" stroke="#f8fafc" stroke-width="8" />
    <rect x="320" y="40" width="260" height="420" rx="42" fill="#020617" stroke="#f8fafc" stroke-width="8" />
    <rect x="640" y="0" width="260" height="420" rx="42" fill="#111827" stroke="#f8fafc" stroke-width="8" />
  </g>
  <g fill="#f8fafc" opacity="0.9">
    <circle cx="230" cy="160" r="18" fill="#fbbf24" />
    <circle cx="370" cy="150" r="16" fill="#e5e7eb" />
    <circle cx="510" cy="220" r="18" fill="#67e8f9" />
    <circle cx="720" cy="150" r="18" fill="#22d3ee" />
    <circle cx="870" cy="160" r="18" fill="#fbbf24" />
    <circle cx="1000" cy="150" r="18" fill="#e5e7eb" />
  </g>
  <g fill="#cbd5e1" opacity="0.85">
    <rect x="200" y="250" width="180" height="18" rx="9" />
    <rect x="200" y="280" width="150" height="12" rx="6" />
    <rect x="520" y="260" width="200" height="18" rx="9" />
    <rect x="520" y="292" width="170" height="12" rx="6" />
    <rect x="840" y="240" width="200" height="18" rx="9" />
    <rect x="840" y="272" width="170" height="12" rx="6" />
  </g>
</svg>
