<svg width="1600" height="900" viewBox="0 0 1600 900" fill="none" xmlns="http://www.w3.org/2000/svg">
  <defs>
    <linearGradient id="bg" x1="0" y1="0" x2="1" y2="1">
      <stop stop-color="#050a16" offset="0" />
      <stop stop-color="#0c1324" offset="1" />
    </linearGradient>
    <linearGradient id="code" x1="0" y1="0" x2="1" y2="0">
      <stop stop-color="#22d3ee" offset="0" />
      <stop stop-color="#0b5cff" offset="1" />
    </linearGradient>
  </defs>
  <rect width="1600" height="900" fill="url(#bg)" />
  <rect x="120" y="120" width="1360" height="660" rx="42" fill="#0a1426" stroke="#15294a" opacity="0.9" />
  <g transform="translate(200,180)">
    <rect width="520" height="520" rx="40" fill="#0c1a30" stroke="#1f365d" />
    <rect x="36" y="44" width="448" height="12" rx="6" fill="#13243f" />
    <rect x="36" y="80" width="240" height="12" rx="6" fill="#13243f" />
    <rect x="36" y="118" width="420" height="12" rx="6" fill="#13243f" />
    <rect x="36" y="156" width="380" height="12" rx="6" fill="#13243f" />
    <rect x="36" y="194" width="260" height="12" rx="6" fill="#13243f" />
    <rect x="36" y="232" width="410" height="12" rx="6" fill="#13243f" />
    <rect x="36" y="270" width="320" height="12" rx="6" fill="#13243f" />
    <rect x="36" y="308" width="280" height="12" rx="6" fill="#13243f" />
    <rect x="36" y="346" width="400" height="12" rx="6" fill="#13243f" />
    <rect x="36" y="384" width="360" height="12" rx="6" fill="#13243f" />
    <rect x="36" y="422" width="440" height="12" rx="6" fill="#13243f" />
  </g>
  <g transform="translate(780,120)">
    <rect width="420" height="780" rx="60" fill="#0e1d34" stroke="#27426c" stroke-width="3" />
    <rect x="28" y="70" width="364" height="640" rx="44" fill="#0a1426" stroke="#1c3153" />
    <rect x="62" y="108" width="296" height="564" rx="34" fill="#0d1c32" />
    <rect x="150" y="36" width="120" height="10" rx="5" fill="#0a1426" />
    <rect x="220" y="36" width="44" height="10" rx="5" fill="#1b2f52" />
    <g transform="translate(104,156)">
      <rect width="212" height="40" rx="12" fill="#0c1a2f" stroke="#1c3153" />
      <path d="M28 20h156" stroke="#1ec8ff" stroke-width="8" stroke-linecap="round" />
    </g>
    <g transform="translate(88,230)">
      <rect width="240" height="200" rx="18" fill="#0c1a2f" stroke="#1c3153" />
      <path d="M56 70l38-32m-38 32l38 32" stroke="url(#code)" stroke-width="12" stroke-linecap="round" stroke-linejoin="round" />
      <path d="M146 54l42 46-42 46" stroke="#a5b4fc" stroke-width="12" stroke-linecap="round" stroke-linejoin="round" />
    </g>
    <g transform="translate(104,464)">
      <rect width="212" height="100" rx="16" fill="#0c1a2f" stroke="#1c3153" />
      <rect x="28" y="26" width="156" height="12" rx="6" fill="#13243f" />
      <rect x="28" y="54" width="112" height="12" rx="6" fill="#13243f" />
    </g>
    <g transform="translate(148,594)">
      <rect width="124" height="62" rx="16" fill="#0b5cff" />
      <rect x="22" y="22" width="80" height="18" rx="9" fill="#e0e7ff" />
    </g>
  </g>
  <rect x="960" y="620" width="320" height="116" rx="26" fill="#0a1424" stroke="#1c3153" opacity="0.8" />
  <rect x="996" y="650" width="120" height="18" rx="9" fill="#13243f" />
  <rect x="996" y="678" width="200" height="12" rx="6" fill="#13243f" />
</svg>
