<svg xmlns="http://www.w3.org/2000/svg" viewBox="0 0 1600 900" role="img" aria-labelledby="title desc">
  <title id="title">Tableros táctiles de datos</title>
  <desc id="desc">Paneles de analítica flotando alrededor de una mano que interactúa, inspirado en la imagen de referencia.</desc>
  <defs>
    <linearGradient id="bg" x1="0%" y1="0%" x2="100%" y2="100%">
      <stop offset="0%" stop-color="#020915"/>
      <stop offset="100%" stop-color="#0a1b34"/>
    </linearGradient>
    <linearGradient id="panel" x1="0%" y1="0%" x2="100%" y2="0%">
      <stop offset="0%" stop-color="#18e3ff" stop-opacity="0.85"/>
      <stop offset="100%" stop-color="#6bbdff" stop-opacity="0.9"/>
    </linearGradient>
    <filter id="shadow" x="-10%" y="-10%" width="120%" height="120%">
      <feDropShadow dx="0" dy="10" stdDeviation="18" flood-color="#000" flood-opacity="0.45"/>
    </filter>
  </defs>
  <rect width="1600" height="900" fill="url(#bg)"/>
  <ellipse cx="900" cy="820" rx="320" ry="120" fill="#041025" opacity="0.8"/>
  <rect x="260" y="220" width="420" height="220" rx="24" fill="#0c1a32" stroke="#18e3ff" stroke-width="8" stroke-opacity="0.4" filter="url(#shadow)"/>
  <rect x="292" y="252" width="356" height="156" rx="18" fill="url(#panel)" opacity="0.9"/>
  <g fill="#021226" opacity="0.7">
    <rect x="320" y="282" width="120" height="14" rx="7"/>
    <rect x="450" y="282" width="160" height="14" rx="7"/>
    <rect x="320" y="314" width="240" height="16" rx="8"/>
    <rect x="320" y="346" width="200" height="16" rx="8"/>
  </g>
  <rect x="730" y="180" width="560" height="260" rx="28" fill="#0c1a32" stroke="#18e3ff" stroke-width="10" stroke-opacity="0.35" filter="url(#shadow)"/>
  <rect x="770" y="216" width="480" height="200" rx="22" fill="url(#panel)" opacity="0.92"/>
  <g fill="#021226" opacity="0.7">
    <rect x="800" y="245" width="160" height="14" rx="7"/>
    <rect x="980" y="245" width="180" height="14" rx="7"/>
    <rect x="800" y="280" width="260" height="16" rx="8"/>
    <rect x="800" y="312" width="320" height="16" rx="8"/>
    <rect x="800" y="344" width="240" height="16" rx="8"/>
  </g>
  <rect x="540" y="470" width="260" height="180" rx="22" fill="#0c1a32" stroke="#18e3ff" stroke-width="8" stroke-opacity="0.35" filter="url(#shadow)"/>
  <rect x="570" y="500" width="200" height="120" rx="18" fill="url(#panel)" opacity="0.9"/>
  <rect x="920" y="490" width="420" height="240" rx="30" fill="#0c1a32" stroke="#18e3ff" stroke-width="10" stroke-opacity="0.35" filter="url(#shadow)"/>
  <rect x="950" y="525" width="360" height="180" rx="22" fill="url(#panel)" opacity="0.9"/>
  <g fill="#021226" opacity="0.75">
    <rect x="980" y="555" width="140" height="14" rx="7"/>
    <rect x="1130" y="555" width="120" height="14" rx="7"/>
    <rect x="980" y="585" width="260" height="16" rx="8"/>
    <rect x="980" y="615" width="300" height="16" rx="8"/>
    <rect x="980" y="645" width="220" height="16" rx="8"/>
  </g>
  <path d="M880 520c0-80 48-110 90-110 34 0 70 16 90 45 26 38 20 86-6 124-22 32-64 52-102 52-34 0-72-14-80-54-3-14-4-37-4-57z" fill="#0c1a32" stroke="#1ef0ff" stroke-width="10" filter="url(#shadow)"/>
  <path d="M930 450c12-22 48-46 78-26 18 12 20 36 18 52-4 26-22 50-42 66-20 16-46 18-62 10-16-8-16-22-16-40 0-20 6-46 24-62z" fill="url(#panel)" opacity="0.9"/>
  <circle cx="1070" cy="750" r="12" fill="#18e3ff"/>
  <circle cx="740" cy="430" r="10" fill="#18e3ff"/>
  <circle cx="420" cy="420" r="10" fill="#18e3ff"/>
</svg>
