<svg width="1200" height="600" viewBox="0 0 1200 600" xmlns="http://www.w3.org/2000/svg">
  <defs>
    <linearGradient id="g2" x1="0" y1="0" x2="1" y2="0">
      <stop offset="0%" stop-color="#050816" />
      <stop offset="100%" stop-color="#0f2c5c" />
    </linearGradient>
    <linearGradient id="neon" x1="0" y1="0" x2="1" y2="1">
      <stop offset="0%" stop-color="#38bdf8" />
      <stop offset="100%" stop-color="#f97316" />
    </linearGradient>
  </defs>
  <rect width="1200" height="600" fill="url(#g2)" />
  <g fill="#0f172a" stroke="#1f2937" stroke-width="2">
    <rect x="80" y="100" width="1040" height="360" rx="30" fill="#0b1220"/>
    <rect x="120" y="140" width="340" height="280" rx="20" fill="#0b1f3d"/>
    <rect x="520" y="140" width="560" height="280" rx="24" fill="#0b1f3d"/>
  </g>
  <g stroke="url(#neon)" stroke-width="6" stroke-linecap="round" fill="none">
    <path d="M200 220 C 360 180, 440 320, 620 260 S 980 320, 1060 220" />
    <path d="M220 320 C 360 280, 460 380, 640 340 S 1000 360, 1080 300" stroke-width="4" stroke-opacity="0.65" />
  </g>
  <g fill="#38bdf8" fill-opacity="0.8">
    <circle cx="210" cy="230" r="12" />
    <circle cx="330" cy="200" r="14" />
    <circle cx="520" cy="260" r="10" />
    <circle cx="720" cy="240" r="12" />
    <circle cx="910" cy="300" r="10" />
    <circle cx="1040" cy="230" r="12" />
  </g>
  <g fill="#f8fafc" fill-opacity="0.9">
    <rect x="160" y="180" width="160" height="18" rx="9" />
    <rect x="180" y="210" width="200" height="12" rx="6" fill-opacity="0.7" />
    <rect x="560" y="190" width="260" height="16" rx="8" />
    <rect x="560" y="230" width="200" height="12" rx="6" fill-opacity="0.7" />
    <rect x="560" y="270" width="320" height="12" rx="6" fill-opacity="0.7" />
    <rect x="560" y="320" width="280" height="12" rx="6" fill-opacity="0.7" />
  </g>
</svg>
