<svg xmlns="http://www.w3.org/2000/svg" viewBox="0 0 1600 900" role="img" aria-labelledby="title desc">
  <title id="title">Panel UX/UI futurista</title>
  <desc id="desc">Pantallas flotantes de UX y UI con efecto holográfico inspirado en la imagen de referencia.</desc>
  <defs>
    <linearGradient id="bg" x1="0%" y1="0%" x2="100%" y2="100%">
      <stop offset="0%" stop-color="#0a1227"/>
      <stop offset="100%" stop-color="#050915"/>
    </linearGradient>
    <linearGradient id="panel" x1="0%" y1="0%" x2="100%" y2="100%">
      <stop offset="0%" stop-color="#1b8fff" stop-opacity="0.9"/>
      <stop offset="100%" stop-color="#11e6ff" stop-opacity="0.85"/>
    </linearGradient>
    <linearGradient id="glow" x1="0%" y1="0%" x2="0%" y2="100%">
      <stop offset="0%" stop-color="#00d8ff" stop-opacity="0.8"/>
      <stop offset="100%" stop-color="#004bff" stop-opacity="0.2"/>
    </linearGradient>
    <filter id="shadow" x="-10%" y="-10%" width="120%" height="120%">
      <feDropShadow dx="0" dy="10" stdDeviation="18" flood-color="#000" flood-opacity="0.4"/>
    </filter>
  </defs>
  <rect width="1600" height="900" fill="url(#bg)"/>
  <ellipse cx="420" cy="780" rx="240" ry="90" fill="#051027" opacity="0.8"/>
  <rect x="330" y="250" width="380" height="260" rx="24" fill="#0b1b37" stroke="#1c6bff" stroke-opacity="0.5" stroke-width="8" filter="url(#shadow)"/>
  <rect x="360" y="280" width="320" height="200" rx="18" fill="url(#panel)" opacity="0.92"/>
  <g fill="#031024" opacity="0.75">
    <rect x="380" y="310" width="80" height="12" rx="6"/>
    <rect x="470" y="310" width="110" height="12" rx="6"/>
    <rect x="380" y="340" width="220" height="16" rx="8"/>
    <rect x="380" y="370" width="180" height="16" rx="8"/>
    <rect x="380" y="400" width="250" height="16" rx="8"/>
  </g>
  <rect x="780" y="190" width="420" height="300" rx="26" fill="#0b1b37" stroke="#0ff" stroke-opacity="0.35" stroke-width="10" filter="url(#shadow)"/>
  <rect x="810" y="220" width="360" height="240" rx="20" fill="url(#panel)" opacity="0.92"/>
  <g fill="#04142b" opacity="0.7">
    <rect x="840" y="245" width="120" height="16" rx="8"/>
    <rect x="970" y="245" width="160" height="16" rx="8"/>
    <rect x="840" y="275" width="260" height="18" rx="9"/>
    <rect x="840" y="305" width="200" height="18" rx="9"/>
    <rect x="840" y="335" width="280" height="18" rx="9"/>
    <rect x="840" y="365" width="220" height="18" rx="9"/>
  </g>
  <rect x="640" y="540" width="560" height="240" rx="32" fill="#0b1b37" stroke="#11e6ff" stroke-opacity="0.4" stroke-width="10" filter="url(#shadow)"/>
  <rect x="672" y="570" width="496" height="190" rx="24" fill="url(#panel)" opacity="0.9"/>
  <g fill="#04142b" opacity="0.75">
    <rect x="700" y="600" width="140" height="16" rx="8"/>
    <rect x="852" y="600" width="170" height="16" rx="8"/>
    <rect x="700" y="632" width="260" height="18" rx="9"/>
    <rect x="700" y="664" width="320" height="18" rx="9"/>
    <rect x="700" y="696" width="280" height="18" rx="9"/>
  </g>
  <rect x="490" y="160" width="120" height="32" rx="16" fill="#00d8ff" opacity="0.55"/>
  <rect x="780" y="140" width="200" height="32" rx="16" fill="#00d8ff" opacity="0.35"/>
  <rect x="1120" y="480" width="120" height="32" rx="16" fill="#00d8ff" opacity="0.45"/>
  <rect x="420" y="520" width="160" height="32" rx="16" fill="#00d8ff" opacity="0.4"/>
  <rect x="380" y="580" width="180" height="160" rx="26" fill="url(#glow)" opacity="0.35"/>
  <rect x="1180" y="220" width="120" height="160" rx="26" fill="url(#glow)" opacity="0.35"/>
</svg>
