<svg width="1600" height="900" viewBox="0 0 1600 900" fill="none" xmlns="http://www.w3.org/2000/svg">
  <defs>
    <linearGradient id="bg" x1="0" y1="0" x2="1" y2="1">
      <stop stop-color="#060d1a" offset="0" />
      <stop stop-color="#0b1528" offset="1" />
    </linearGradient>
    <linearGradient id="ux" x1="0" y1="0" x2="1" y2="0">
      <stop stop-color="#38bdf8" offset="0" />
      <stop stop-color="#0b5cff" offset="1" />
    </linearGradient>
    <linearGradient id="ui" x1="0" y1="0" x2="1" y2="0">
      <stop stop-color="#a855f7" offset="0" />
      <stop stop-color="#6366f1" offset="1" />
    </linearGradient>
  </defs>
  <rect width="1600" height="900" fill="url(#bg)" />
  <rect x="120" y="120" width="1360" height="660" rx="38" fill="#0a1426" stroke="#1c3153" opacity="0.85" />
  <g transform="translate(220,220)">
    <rect width="520" height="420" rx="28" fill="#0c1a30" stroke="#23406c" />
    <rect x="38" y="60" width="320" height="18" rx="9" fill="#13243f" />
    <rect x="38" y="96" width="240" height="18" rx="9" fill="#13243f" />
    <rect x="38" y="132" width="380" height="18" rx="9" fill="#13243f" />
    <rect x="38" y="168" width="310" height="18" rx="9" fill="#13243f" />
    <rect x="38" y="204" width="360" height="18" rx="9" fill="#13243f" />
    <rect x="38" y="240" width="260" height="18" rx="9" fill="#13243f" />
    <rect x="38" y="276" width="300" height="18" rx="9" fill="#13243f" />
    <rect x="38" y="312" width="400" height="18" rx="9" fill="#13243f" />
    <rect x="38" y="348" width="280" height="18" rx="9" fill="#13243f" />
  </g>
  <g transform="translate(820,170)">
    <rect width="520" height="560" rx="32" fill="#0c1a30" stroke="#23406c" />
    <g transform="translate(50,60)">
      <rect width="420" height="140" rx="18" fill="#0d213b" stroke="#264571" />
      <rect x="28" y="34" width="120" height="22" rx="11" fill="#0b5cff" />
      <rect x="28" y="72" width="260" height="14" rx="7" fill="#13243f" />
      <rect x="28" y="96" width="180" height="14" rx="7" fill="#13243f" />
      <rect x="200" y="34" width="80" height="22" rx="11" fill="#0ea5e9" />
    </g>
    <g transform="translate(50,240)">
      <rect width="420" height="120" rx="18" fill="#0d213b" stroke="#264571" />
      <rect x="28" y="36" width="160" height="16" rx="8" fill="#13243f" />
      <rect x="28" y="62" width="120" height="16" rx="8" fill="#13243f" />
      <rect x="220" y="36" width="170" height="52" rx="14" fill="#0b5cff" opacity="0.85" />
    </g>
    <g transform="translate(50,392)">
      <rect width="420" height="120" rx="18" fill="#0d213b" stroke="#264571" />
      <rect x="28" y="36" width="120" height="16" rx="8" fill="#13243f" />
      <rect x="28" y="62" width="200" height="16" rx="8" fill="#13243f" />
      <rect x="248" y="36" width="130" height="16" rx="8" fill="#13243f" />
      <rect x="248" y="62" width="90" height="16" rx="8" fill="#13243f" />
    </g>
    <g transform="translate(360,30)">
      <rect width="120" height="120" rx="24" fill="#0d223c" stroke="#264571" />
      <text x="30" y="74" font-family="'Inter', sans-serif" font-weight="800" font-size="38" fill="url(#ux)">UX</text>
    </g>
    <g transform="translate(360,170)">
      <rect width="120" height="120" rx="24" fill="#0d223c" stroke="#264571" />
      <text x="32" y="74" font-family="'Inter', sans-serif" font-weight="800" font-size="38" fill="url(#ui)">UI</text>
    </g>
  </g>
  <rect x="820" y="120" width="520" height="560" rx="32" fill="#0b5cff" opacity="0.08" />
  <rect x="200" y="500" width="500" height="200" rx="26" fill="#0a1426" stroke="#1c3153" opacity="0.7" />
  <rect x="230" y="540" width="120" height="18" rx="9" fill="#13243f" />
  <rect x="230" y="568" width="260" height="12" rx="6" fill="#13243f" />
  <rect x="230" y="592" width="320" height="12" rx="6" fill="#13243f" />
</svg>
