<?xml version="1.0" encoding="UTF-8" standalone="no"?>
<!-- Generator: Adobe Illustrator 15.0.0, SVG Export Plug-In . SVG Version: 6.00 Build 0)  -->

<svg
   xmlns:dc="http://purl.org/dc/elements/1.1/"
   xmlns:cc="http://creativecommons.org/ns#"
   xmlns:rdf="http://www.w3.org/1999/02/22-rdf-syntax-ns#"
   xmlns:svg="http://www.w3.org/2000/svg"
   xmlns="http://www.w3.org/2000/svg"
   xmlns:sodipodi="http://sodipodi.sourceforge.net/DTD/sodipodi-0.dtd"
   xmlns:inkscape="http://www.inkscape.org/namespaces/inkscape"
   version="1.1"
   id="Ebene_1"
   x="0px"
   y="0px"
   width="858.75403"
   height="221.90401"
   viewBox="0 0 858.75401 221.904"
   enable-background="new 0 0 841.89 595.28"
   xml:space="preserve"
   inkscape:version="0.48.2 r9819"
   sodipodi:docname="Amada.svg"><metadata
   id="metadata23"><rdf:RDF><cc:Work
       rdf:about=""><dc:format>image/svg+xml</dc:format><dc:type
         rdf:resource="http://purl.org/dc/dcmitype/StillImage" /></cc:Work></rdf:RDF></metadata><defs
   id="defs21" /><sodipodi:namedview
   pagecolor="#ffffff"
   bordercolor="#666666"
   borderopacity="1"
   objecttolerance="10"
   gridtolerance="10"
   guidetolerance="10"
   inkscape:pageopacity="0"
   inkscape:pageshadow="2"
   inkscape:window-width="1280"
   inkscape:window-height="968"
   id="namedview19"
   showgrid="false"
   fit-margin-top="20"
   fit-margin-left="20"
   fit-margin-right="20"
   fit-margin-bottom="20"
   inkscape:zoom="0.39645207"
   inkscape:cx="430.80701"
   inkscape:cy="106.273"
   inkscape:window-x="-4"
   inkscape:window-y="-4"
   inkscape:window-maximized="1"
   inkscape:current-layer="Ebene_1" />
<path
   clip-rule="evenodd"
   d="m 56.385,110.94299 c 0,-30.14 24.432,-54.571 54.571,-54.571 30.14,0 54.571,24.431 54.571,54.571 0,30.139 -24.431,54.572 -54.571,54.572 -30.139,0 -54.571,-24.433 -54.571,-54.572 l 0,0 z m -0.006,72.777 0.001,18.178 H 20 v -90.945 c 0,-50.232 40.72,-90.953 90.952,-90.953 50.23,0 90.952,40.721 90.952,90.953 0,90.945 0.009,90.945 0.009,90.945 h -36.382 v -18.184 c -15.201,11.421 -34.1,18.189 -54.578,18.189 -20.477,0.001 -39.373,-6.762 -54.574,-18.183 l 0,0 z"
   id="path3"
   inkscape:connector-curvature="0"
   style="fill-rule:evenodd" />
<polygon
   points="323.093,289.315 359.474,289.315 359.474,383.907 323.093,383.907 323.093,355.944 304.869,383.907 275.75,383.907 257.526,355.944 257.526,383.907 221.146,383.907 221.146,289.315 221.146,289.315 257.526,289.315 290.309,339.798 "
   id="polygon5"
   transform="translate(9.8619997,-182.00901)" />
<path
   d="m 475.399,172.80199 -15.111,-31.432 -15.113,31.432 h 30.224 l 0,0 z m -31.485,-65.486 h 32.746 10.911 l 45.478,94.588 h -43.657 l -5.247,-10.914 h -47.714 l -5.248,10.914 h -43.657 l 45.478,-94.588 h 10.91 l 0,0 z"
   id="path7"
   inkscape:connector-curvature="0" />
<path
   d="m 620.364,183.71499 c 16.073,0 29.105,-13.028 29.105,-29.102 0,-16.074 -13.032,-29.108 -29.105,-29.108 H 591.26 v 58.21 h 29.104 l 0,0 z m 21.829,-76.399 c 26.119,0 47.294,21.173 47.294,47.297 0,26.119 -21.175,47.291 -47.294,47.291 H 551.24 v -94.588 h 90.953 l 0,0 z"
   id="path9"
   inkscape:connector-curvature="0" />
<path
   d="m 781.102,172.80199 -15.112,-31.432 -15.108,31.432 h 30.22 l 0,0 z m -31.484,-65.486 h 32.746 10.91 l 45.48,94.588 h -43.656 l -5.247,-10.914 h -47.716 l -5.247,10.914 h -43.659 l 45.478,-94.588 h 10.911 l 0,0 z"
   id="path11"
   inkscape:connector-curvature="0" />
<path
   clip-rule="evenodd"
   d="m 824.108,110.84299 c -1.523,1.529 -2.281,3.376 -2.281,5.536 0,2.176 0.755,4.039 2.27,5.572 1.52,1.535 3.366,2.302 5.541,2.302 2.174,0 4.022,-0.767 5.542,-2.302 1.522,-1.533 2.281,-3.396 2.284,-5.572 0,-2.16 -0.762,-4.007 -2.284,-5.536 -1.528,-1.534 -3.376,-2.302 -5.542,-2.302 -2.158,0 -4.002,0.768 -5.53,2.302 l 0,0 z m 11.976,11.988 c -1.776,1.783 -3.925,2.674 -6.446,2.674 -2.521,0 -4.666,-0.891 -6.436,-2.674 -1.759,-1.776 -2.642,-3.925 -2.642,-6.452 0,-2.501 0.889,-4.639 2.668,-6.415 1.769,-1.766 3.901,-2.649 6.409,-2.649 2.521,0 4.67,0.883 6.446,2.649 1.776,1.768 2.668,3.904 2.668,6.415 10e-4,2.516 -0.891,4.671 -2.667,6.452 l 0,0 z m -4.734,-9.892 c -0.44,-0.25 -1.146,-0.374 -2.121,-0.374 h -1.501 v 3.617 h 1.588 c 0.742,0 1.3,-0.073 1.673,-0.226 0.688,-0.271 1.029,-0.789 1.029,-1.556 0,-0.728 -0.223,-1.213 -0.668,-1.461 l 0,0 z m -1.887,-1.575 c 1.241,0 2.149,0.121 2.729,0.36 1.034,0.43 1.549,1.271 1.552,2.523 0,0.892 -0.33,1.551 -0.982,1.974 -0.347,0.22 -0.831,0.384 -1.45,0.48 0.785,0.124 1.361,0.451 1.725,0.981 0.36,0.524 0.544,1.044 0.544,1.545 v 0.733 c 0,0.231 0.009,0.474 0.026,0.738 0.016,0.266 0.045,0.439 0.087,0.524 l 0.062,0.124 h -1.649 c -0.009,-0.033 -0.018,-0.067 -0.024,-0.102 -0.009,-0.033 -0.018,-0.067 -0.025,-0.112 l -0.037,-0.321 v -0.789 c 0,-1.156 -0.314,-1.923 -0.942,-2.295 -0.372,-0.216 -1.022,-0.323 -1.96,-0.323 h -1.388 v 3.942 h -1.762 v -9.984 h 3.494 l 0,0.002 z"
   id="path13"
   inkscape:connector-curvature="0"
   style="fill-rule:evenodd" />
<path
   d="m 56.197,110.95299 c 0,-30.24 24.514,-54.752 54.754,-54.752 30.239,0 54.752,24.512 54.752,54.752 0,30.242 -24.514,54.752 -54.752,54.752 -30.24,0.001 -54.754,-24.51 -54.754,-54.752 l 0,0 z"
   id="path15"
   inkscape:connector-curvature="0"
   style="fill:#e2001a" />
<path
   d="m 56.197,110.95299 c 0,-30.24 24.514,-54.752 54.754,-54.752 30.239,0 54.752,24.512 54.752,54.752 0,30.242 -24.514,54.752 -54.752,54.752 -30.24,0.001 -54.754,-24.51 -54.754,-54.752 l 0,0 z"
   id="path17"
   inkscape:connector-curvature="0"
   style="fill:#e53434" />
</svg>