<?xml version="1.0" encoding="utf-8"?>
<!-- Generator: Adobe Illustrator 17.0.0, SVG Export Plug-In . SVG Version: 6.00 Build 0)  -->
<!DOCTYPE svg PUBLIC "-//W3C//DTD SVG 1.1//EN" "http://www.w3.org/Graphics/SVG/1.1/DTD/svg11.dtd">
<svg version="1.1" id="Capa_1" xmlns="http://www.w3.org/2000/svg" xmlns:xlink="http://www.w3.org/1999/xlink" x="0px" y="0px"
	 width="500px" height="200px" viewBox="0 0 500 200" enable-background="new 0 0 500 200" xml:space="preserve">
<g>
	<path fill="#1DA6FC" d="M79.226,137.355c-6.269,1.605-9.927-1.294-12.183-6.886c-0.53-1.314-1.053-3.253-2.436-3.46
		c-1.28-0.192-1.939,1.748-2.921,2.696c-5.301,5.119-11.645,7.616-18.966,7.604c-13.344-0.023-26.687-0.106-40.031-0.179
		c-2.672-0.015-2.894-0.436-1.527-2.799c1.846-3.19,3.792-6.326,5.552-9.563c0.939-1.726,2.193-2.358,4.113-2.266
		c2.576,0.123,5.164-0.041,7.742,0.045c1.615,0.054,1.849-0.494,1.318-1.915c-2.266-6.059-2.109-12.126,0.157-18.151
		c0.965-2.566,2.474-4.857,3.839-7.215c6.016-10.394,12.049-20.778,18.09-31.157c1.455-2.5,2.192-2.535,3.636-0.111
		c1.848,3.101,3.585,6.268,5.421,9.377c0.888,1.503,0.812,2.868-0.096,4.345c-1.351,2.197-2.55,4.488-3.875,6.701
		c-0.767,1.28-0.692,1.908,0.973,2.218c8.019,1.495,14.038,5.904,18.11,12.918c6.7,11.539,13.332,23.117,19.974,34.69
		c1.414,2.464,1.044,3.069-1.8,3.104C82.619,137.372,80.922,137.355,79.226,137.355z M43.577,122.618
		c6.203,0.018,11.003-4.666,11.049-10.781c0.046-6.097-4.834-11.073-10.836-11.051c-6.083,0.023-10.928,4.883-10.932,10.967
		C32.852,117.819,37.57,122.601,43.577,122.618z"/>
	<path fill="#171F17" d="M408.182,80.022c6.342,0,12.685-0.049,19.026,0.016c4.635,0.048,6.504,1.75,6.597,6.401
		c0.133,6.632,0.038,13.272-0.08,19.906c-0.052,2.943-1.257,4.052-4.668,4.977c-1.29,0.35-3.114,0.081-3.495,1.752
		c-0.359,1.578,1.27,2.347,2.193,3.345c1.55,1.676,3.268,3.212,4.69,4.987c1.263,1.579,0.729,2.666-1.269,2.747
		c-2.724,0.11-5.459,0.096-8.185-0.002c-1.638-0.059-2.84-1.148-3.957-2.235c-2.8-2.725-5.576-5.476-8.356-8.221
		c-2.079-2.052-8.97-3.127-11.489-1.784c-0.916,0.488-1.063,1.334-1.067,2.258c-0.01,2.286-0.065,4.573-0.033,6.859
		c0.024,1.781-0.73,2.729-2.552,2.918c-2.577,0.267-5.157,0.281-7.723,0.068c-2.651-0.22-3.206-0.846-3.229-3.474
		c-0.054-6.047-0.048-12.094-0.04-18.142c0.008-5.899,0.081-11.798,0.064-17.697c-0.011-3.914,0.699-4.714,4.543-4.719
		c6.343-0.008,12.686-0.002,19.029-0.002C408.182,79.994,408.182,80.008,408.182,80.022z M408.952,100.272c0,0.013,0,0.026,0,0.04
		c1.18,0,2.36,0.002,3.539,0c1.18-0.002,2.361,0.03,3.539-0.02c3.047-0.128,3.725-0.841,3.777-3.89
		c0.009-0.516,0.001-1.032-0.013-1.548c-0.094-3.281-0.876-4.084-4.205-4.13c-3.76-0.051-7.521-0.039-11.282-0.041
		c-5.635-0.003-6.25,0.635-6.013,6.195c0.107,2.509,0.781,3.267,3.359,3.373C404.082,100.351,406.519,100.272,408.952,100.272z"/>
	<path fill="#171F17" d="M276.143,102.024c0-5.679-0.01-11.357,0.003-17.036c0.011-4.488,0.516-4.991,4.9-5.009
		c0.147-0.001,0.295-0.004,0.443-0.004c6.741-0.025,9.38,1.949,11.447,8.527c0.574,1.826,2.318,2.862,3.11,4.589
		c0.763,1.664,1.776,3.228,2.8,4.755c1.296,1.934,2.604,2.031,4.022,0.164c1.241-1.633,2.251-3.451,3.275-5.237
		c1.649-2.875,3.25-5.778,4.827-8.693c1.544-2.854,3.736-4.489,7.141-4.124c0.948,0.102,1.916,0.009,2.875,0.013
		c3.596,0.013,4.414,0.762,4.413,4.427c-0.002,11.8-0.041,23.6-0.107,35.4c-0.02,3.594-0.514,4.071-4.075,4.234
		c-1.544,0.07-3.099,0.074-4.642-0.02c-3.333-0.202-3.809-0.721-3.839-4.013c-0.025-2.729,0.029-5.458-0.03-8.186
		c-0.02-0.915,0.169-2.137-0.896-2.534c-1.277-0.476-1.789,0.784-2.329,1.587c-2.056,3.056-4.092,6.127-5.837,9.381
		c-1.363,2.541-3.237,2.541-4.82,0.125c-2.059-3.142-4.192-6.237-6.317-9.336c-0.569-0.83-1.096-2.07-2.293-1.725
		c-1.333,0.385-1.041,1.806-1.067,2.86c-0.066,2.654,0.003,5.31-0.052,7.964c-0.065,3.135-0.58,3.701-3.744,3.922
		c-1.835,0.128-3.688,0.133-5.526,0.039c-3.049-0.155-3.75-0.878-3.773-3.93c-0.044-6.047-0.013-12.095-0.013-18.143
		C276.074,102.024,276.108,102.024,276.143,102.024z"/>
	<path fill="#171F17" d="M355.428,124.117c-5.533,0-11.066,0.016-16.599-0.004c-5.974-0.022-8.244-2.182-8.254-8.091
		c-0.018-10.697,0.053-21.394,0.122-32.09c0.022-3.289,0.749-3.939,4.113-3.957c1.844-0.01,3.689-0.01,5.533,0.005
		c3.11,0.027,3.866,0.715,3.887,3.967c0.049,7.599,0.005,15.198,0.002,22.797c0,1.254,0.011,2.508,0.031,3.762
		c0.031,1.979,0.931,3.288,2.991,3.399c5.303,0.287,10.618,0.337,15.914-0.026c2.483-0.17,3.111-1.133,3.129-3.916
		c0.047-7.451,0.026-14.903,0.057-22.354c0.007-1.62,0.093-3.24,0.182-4.858c0.104-1.906,1.227-2.738,3.048-2.754
		c2.139-0.019,4.279-0.034,6.418-0.019c3.134,0.022,3.98,0.881,3.993,4.112c0.019,4.648,0.006,9.296-0.001,13.944
		c-0.01,6.271,0.021,12.543-0.06,18.813c-0.064,4.883-2.381,7.185-7.244,7.236c-5.753,0.06-11.508,0.014-17.262,0.014
		C355.428,124.103,355.428,124.11,355.428,124.117z"/>
	<path fill="#171F17" d="M463.231,79.983c3.391,0,6.783-0.019,10.174,0.008c2.147,0.017,3.46,0.631,4.205,3.143
		c3.688,12.425,6.102,25.147,9.169,37.715c0.591,2.42,0.218,2.901-2.24,3.157c-2.349,0.245-4.708,0.155-7.066,0.027
		c-2.04-0.11-3.27-1.081-3.744-3.091c-0.489-2.076-1.098-4.124-1.597-6.198c-0.503-2.086-1.804-3.169-3.922-3.192
		c-3.391-0.037-6.782-0.018-10.174-0.01c-1.892,0.004-3.146,0.842-3.883,2.664c-0.891,2.201-1.324,4.515-1.927,6.784
		c-0.51,1.921-1.646,2.866-3.568,3.02c-2.503,0.201-5.007,0.186-7.508,0.007c-1.839-0.132-2.622-1.025-2.143-2.951
		c3.053-12.279,6.032-24.577,9.124-36.847c0.933-3.702,1.803-4.231,5.588-4.234C456.891,79.981,460.061,79.983,463.231,79.983z
		 M462.802,100.19c0.293,0,0.586,0.004,0.879-0.001c1.434-0.025,3.061,0.335,3.408-1.787c0.341-2.085-1.322-6.961-2.519-7.305
		c-0.208-0.06-0.434-0.056-0.652-0.075c-2.873-0.255-3.997,0.792-4.6,4.821C458.607,100.59,458.711,100.263,462.802,100.19z"/>
	<path fill="#171F17" d="M247.13,79.971c3.246-0.001,6.493-0.003,9.739,0c3.401,0.003,4.507,0.82,5.244,4.098
		c0.685,3.05,1.105,6.166,1.904,9.183c2.32,8.754,4.356,17.575,6.432,26.387c0.901,3.828,0.522,4.348-3.506,4.41
		c-1.769,0.027-3.54-0.048-5.31-0.031c-2.274,0.022-3.555-1.112-4.048-3.286c-0.407-1.795-0.854-3.581-1.316-5.362
		c-0.785-3.027-1.843-3.846-4.998-3.873c-2.877-0.024-5.755-0.054-8.631-0.022c-3.052,0.033-3.874,0.577-4.886,3.477
		c-0.654,1.873-1.162,3.806-1.589,5.745c-0.491,2.227-1.835,3.275-4.044,3.298c-2.212,0.023-4.428,0.082-6.636-0.021
		c-2.608-0.121-3.107-0.832-2.496-3.368c1.451-6.015,2.935-12.022,4.408-18.032c1.438-5.865,2.883-11.729,4.317-17.595
		c1.08-4.416,1.823-5.007,6.34-5.007C241.08,79.972,244.105,79.972,247.13,79.971z M246.649,100.078
		c4.574-0.001,4.851-0.341,3.906-4.78c-0.122-0.574-0.243-1.149-0.364-1.723c-0.307-1.456-0.793-2.651-2.654-2.622
		c-1.773,0.028-3.236,0.409-3.722,2.351c-0.338,1.35-0.501,2.747-0.899,4.077c-0.596,1.992-0.3,2.541,1.752,2.689
		C245.325,100.118,245.988,100.078,246.649,100.078z"/>
	<path fill="#171F17" d="M105.937,102.162c0-5.976-0.017-11.952,0.007-17.927c0.013-3.397,0.825-4.193,4.163-4.217
		c2.066-0.015,4.131-0.019,6.197-0.014c1.88,0.005,2.765,0.929,2.911,2.839c0.393,5.118,1.038,5.486,6.068,4.031
		c7.705-2.229,15.403-4.487,23.146-6.577c3.788-1.023,4.367-0.401,4.421,3.536c0.11,8.001-0.136,7.25-6.91,8.963
		c-0.498,0.126-0.992,0.28-1.47,0.467c-3.112,1.223-3.413,1.947-2.032,4.949c3.14,6.824,6.294,13.642,9.433,20.467
		c2.136,4.643,1.628,5.01-3.29,5.48c-5.27,0.505-8.108-1.462-10.078-6.284c-2.363-5.783-5.47-11.262-8.253-16.873
		c-1.58-3.187-2.381-3.552-5.748-2.394c-5.621,1.932-5.51,1.036-5.499,7.673c0.008,4.648,0.02,9.296-0.045,13.943
		c-0.047,3.365-0.585,3.873-3.875,3.88c-2.064,0.004-4.128-0.074-6.191-0.129c-2.084-0.056-3.023-1.109-3.007-3.222
		c0.047-6.197,0.017-12.394,0.017-18.591C105.914,102.162,105.925,102.162,105.937,102.162z"/>
	<path fill="#171F17" d="M201.624,80.402c7.081,0,14.162-0.023,21.243,0.01c3.207,0.015,3.845,0.711,3.887,3.921
		c0.071,5.478-0.181,5.732-5.682,5.733c-3.025,0-6.051,0.07-9.073-0.017c-2.246-0.065-3.333,1.063-3.431,3.131
		c-0.15,3.165-0.162,6.338-0.187,9.507c-0.046,5.901-0.027,11.803-0.098,17.704c-0.036,2.95-0.514,3.458-3.492,3.59
		c-2.353,0.104-4.715-0.031-7.073-0.025c-2.337,0.006-3.043-1.366-3.035-3.432c0.028-7.082,0.045-14.164,0.052-21.245
		c0.002-2.136,0.123-4.273-0.168-6.407c-0.26-1.914-1.169-2.867-3.209-2.823c-3.686,0.08-7.376,0.036-11.064,0.008
		c-3.658-0.028-4.399-0.79-4.41-4.416c-0.015-4.703,0.452-5.175,5.162-5.178c6.859-0.004,13.718-0.001,20.578-0.001
		C201.624,80.442,201.624,80.422,201.624,80.402z"/>
	<path fill="#171F17" d="M172.264,102.082c0,5.892,0.014,11.785-0.005,17.677c-0.012,3.615-0.591,4.223-4.22,4.359
		c-1.986,0.074-3.98,0.095-5.964,0.006c-2.628-0.117-3.406-0.928-3.408-3.545c-0.008-12.079-0.001-24.158,0.044-36.237
		c0.013-3.521,0.83-4.286,4.306-4.336c1.767-0.025,3.536-0.036,5.303-0.003c3.086,0.059,3.954,0.907,3.967,3.961
		c0.025,6.04,0.007,12.079,0.007,18.119C172.283,102.082,172.273,102.082,172.264,102.082z"/>
	<path fill="#171F17" d="M490.6,87.569c0-2.193,0.052-4.1-0.021-6.003c-0.04-1.046,0.431-1.241,1.314-1.164
		c0.657,0.057,1.322,0.024,1.983,0.021c1.045-0.003,1.915,0.285,2.153,1.442c0.201,0.977-0.094,1.767-1.123,2.078
		c-1.077,0.325-0.663,0.878-0.298,1.474c0.362,0.591,0.694,1.2,1.324,2.3c-1.394-0.785-1.719-1.689-2.161-2.452
		c-0.455-0.786-1.003-1.301-1.932-1.044c-0.913,0.253-0.493,1.081-0.608,1.676C491.144,86.359,491.427,86.907,490.6,87.569z
		 M492.81,83.57c1.046-0.091,2.518,0.211,2.459-1.422c-0.057-1.571-1.524-1.246-2.571-1.331c-0.945-0.077-1.665-0.038-1.68,1.324
		C491,83.594,491.715,83.707,492.81,83.57z"/>
	<circle fill="none" stroke="#171F17" stroke-miterlimit="10" cx="493.333" cy="84.052" r="6.328"/>
</g>
</svg>
