<?xml version="1.0" encoding="UTF-8" standalone="no"?>
<!DOCTYPE svg PUBLIC "-//W3C//DTD SVG 1.1//EN" "http://www.w3.org/Graphics/SVG/1.1/DTD/svg11.dtd">
<svg width="100%" height="100%" viewBox="0 0 165 47" version="1.1" xmlns="http://www.w3.org/2000/svg" xmlns:xlink="http://www.w3.org/1999/xlink" xml:space="preserve" xmlns:serif="http://www.serif.com/" style="fill-rule:evenodd;clip-rule:evenodd;stroke-linejoin:round;stroke-miterlimit:2;">
    <g transform="matrix(0.960291,0,0,0.960291,-1.20132,-0.208382)">
        <g>
            <path d="M25.837,11.477C27.235,11.469 26.924,12.783 26.715,13.933C25.762,18.413 22.08,35.668 22.08,35.668L33.655,35.668L38.958,10.727C39.362,8.825 39.027,7.124 37.985,5.806C36.813,4.324 34.866,3.475 32.505,3.42L32.495,3.42L32.482,3.415L10.612,3.427L9.931,3.427L3.046,35.685L14.696,35.672C14.696,35.672 19.576,12.733 19.843,11.475L25.837,11.477Z" style="fill:rgb(8,59,111);fill-rule:nonzero;"/>
            <path d="M109.855,35.68L121.432,35.68L126.733,10.743C127.138,8.84 126.8,7.138 125.76,5.821C124.589,4.339 122.642,3.492 120.281,3.436C120.259,3.427 79.385,3.447 79.385,3.447L78.704,3.447L71.817,35.703L83.468,35.692C83.468,35.692 88.343,12.77 88.61,11.512L94.623,11.507C96.021,11.499 95.71,12.813 95.501,13.963L90.834,35.699L102.484,35.687C102.484,35.687 107.367,12.748 107.634,11.489L107.64,11.494L107.634,11.489L113.646,11.484C115.043,11.477 114.732,12.791 114.522,13.94L109.855,35.678L109.855,35.68Z" style="fill:rgb(8,59,111);fill-rule:nonzero;"/>
            <path d="M51.8,27.693C50.402,27.702 50.713,26.387 50.923,25.237C51.847,20.889 55.48,3.498 55.48,3.498L43.903,3.498L38.605,28.439C38.198,30.34 38.533,32.041 39.573,33.358C40.745,34.842 42.692,35.688 45.056,35.743L45.065,35.744L45.078,35.754L68.109,35.739L74.996,3.482L73.953,3.483L63.346,3.493C63.346,3.493 58.544,26.435 58.277,27.693L51.8,27.693Z" style="fill:rgb(8,59,111);fill-rule:nonzero;"/>
            <path d="M173.074,19.466C173.074,30.098 164.456,38.714 153.826,38.714C143.196,38.714 134.578,30.098 134.578,19.466C134.578,8.835 143.196,0.217 153.826,0.217C164.456,0.217 173.074,8.835 173.074,19.466Z" style="fill:white;fill-rule:nonzero;"/>
            <path d="M171.05,10.862C167.892,4.55 161.364,0.217 153.826,0.217C143.196,0.217 134.578,8.835 134.578,19.466C134.578,20.137 134.612,20.799 134.68,21.452L140.769,21.452L147.51,10.862L153.489,10.862L157.907,18.994L163.144,10.862L171.05,10.862Z" style="fill:rgb(231,68,61);fill-rule:nonzero;"/>
            <path d="M149.75,20.195L154.215,28.298L160.231,28.298L166.88,17.703L172.996,17.703C173.048,18.284 173.074,18.872 173.074,19.466C173.074,30.098 164.456,38.714 153.826,38.714C146.378,38.714 139.92,34.485 136.718,28.298L144.48,28.298L149.75,20.195Z" style="fill:rgb(8,59,111);fill-rule:nonzero;"/>
            <path d="M5.756,41.87C5.671,41.806 5.564,41.741 5.435,41.688C5.328,41.634 5.2,41.592 5.05,41.559C4.889,41.527 4.718,41.506 4.515,41.506C4.13,41.506 3.787,41.57 3.477,41.709C3.167,41.848 2.889,42.052 2.642,42.308C2.428,42.533 2.236,42.822 2.065,43.154C1.893,43.485 1.754,43.849 1.626,44.245C1.508,44.641 1.412,45.048 1.348,45.476C1.284,45.904 1.251,46.332 1.251,46.749C1.251,47.295 1.316,47.723 1.433,48.044C1.562,48.375 1.712,48.621 1.893,48.793C2.075,48.964 2.289,49.071 2.514,49.124C2.739,49.178 2.953,49.21 3.156,49.21C3.327,49.21 3.498,49.199 3.659,49.167C3.819,49.146 3.969,49.114 4.098,49.082C4.247,49.049 4.387,49.007 4.515,48.964L4.686,48.033C4.526,48.086 4.354,48.14 4.194,48.193C4.055,48.236 3.894,48.279 3.734,48.311C3.573,48.343 3.413,48.365 3.274,48.365C3.103,48.365 2.953,48.333 2.824,48.279C2.685,48.226 2.578,48.14 2.493,48.012C2.396,47.894 2.332,47.723 2.279,47.519C2.225,47.305 2.204,47.049 2.204,46.738C2.204,46.353 2.236,45.979 2.3,45.593C2.364,45.197 2.45,44.834 2.557,44.491C2.653,44.138 2.771,43.828 2.899,43.56C3.028,43.282 3.156,43.068 3.295,42.929C3.37,42.843 3.456,42.769 3.541,42.694C3.616,42.619 3.712,42.555 3.809,42.501C3.905,42.448 4.012,42.405 4.14,42.373C4.258,42.341 4.397,42.319 4.558,42.319C4.708,42.319 4.847,42.341 4.975,42.373C5.093,42.405 5.21,42.437 5.307,42.48C5.424,42.533 5.521,42.597 5.617,42.662L5.756,41.87Z" style="fill:rgb(8,59,111);fill-rule:nonzero;"/>
            <path d="M11.898,41.613L10.935,41.613L10.293,45.294C10.25,45.54 10.218,45.807 10.186,46.096C10.154,46.385 10.121,46.663 10.1,46.909C10.068,47.198 10.047,47.498 10.025,47.787C9.993,47.562 9.95,47.337 9.897,47.091C9.854,46.888 9.8,46.642 9.736,46.374C9.672,46.107 9.597,45.818 9.512,45.529L8.367,41.613L7.404,41.613L6.088,49.103L7.051,49.103L7.725,45.262C7.778,44.994 7.81,44.727 7.842,44.438C7.874,44.149 7.896,43.892 7.917,43.646C7.949,43.357 7.971,43.079 7.981,42.801C8.035,43.047 8.088,43.293 8.142,43.539C8.195,43.753 8.249,43.988 8.313,44.256C8.377,44.523 8.442,44.78 8.516,45.026L9.715,49.103L10.582,49.103L11.898,41.613Z" style="fill:rgb(8,59,111);fill-rule:nonzero;"/>
            <path d="M17.612,41.87C17.526,41.806 17.419,41.741 17.291,41.688C17.184,41.634 17.055,41.592 16.905,41.559C16.745,41.527 16.574,41.506 16.37,41.506C15.985,41.506 15.643,41.57 15.332,41.709C15.022,41.848 14.744,42.052 14.498,42.308C14.284,42.533 14.091,42.822 13.92,43.154C13.749,43.485 13.61,43.849 13.481,44.245C13.364,44.641 13.267,45.048 13.203,45.476C13.139,45.904 13.107,46.332 13.107,46.749C13.107,47.295 13.171,47.723 13.289,48.044C13.417,48.375 13.567,48.621 13.749,48.793C13.931,48.964 14.145,49.071 14.369,49.124C14.594,49.178 14.808,49.21 15.011,49.21C15.183,49.21 15.354,49.199 15.514,49.167C15.675,49.146 15.825,49.114 15.953,49.082C16.103,49.049 16.242,49.007 16.37,48.964L16.542,48.033C16.381,48.086 16.21,48.14 16.049,48.193C15.91,48.236 15.75,48.279 15.589,48.311C15.429,48.343 15.268,48.365 15.129,48.365C14.958,48.365 14.808,48.333 14.68,48.279C14.541,48.226 14.434,48.14 14.348,48.012C14.252,47.894 14.188,47.723 14.134,47.519C14.081,47.305 14.059,47.049 14.059,46.738C14.059,46.353 14.091,45.979 14.155,45.593C14.22,45.197 14.305,44.834 14.412,44.491C14.509,44.138 14.626,43.828 14.755,43.56C14.883,43.282 15.011,43.068 15.151,42.929C15.225,42.843 15.311,42.769 15.397,42.694C15.472,42.619 15.568,42.555 15.664,42.501C15.76,42.448 15.867,42.405 15.996,42.373C16.114,42.341 16.253,42.319 16.413,42.319C16.563,42.319 16.702,42.341 16.83,42.373C16.948,42.405 17.066,42.437 17.162,42.48C17.28,42.533 17.376,42.597 17.472,42.662L17.612,41.87Z" style="fill:rgb(8,59,111);fill-rule:nonzero;"/>
            <path d="M25.444,41.891C25.315,41.816 25.176,41.752 25.016,41.699C24.876,41.645 24.716,41.602 24.534,41.559C24.352,41.527 24.138,41.506 23.913,41.506C23.625,41.506 23.346,41.549 23.079,41.624C22.811,41.699 22.565,41.827 22.362,41.987C22.159,42.159 21.987,42.373 21.87,42.64C21.741,42.908 21.677,43.229 21.677,43.603C21.677,43.871 21.72,44.106 21.795,44.309C21.87,44.513 21.966,44.695 22.084,44.844C22.201,45.005 22.319,45.133 22.458,45.251C22.597,45.369 22.715,45.465 22.833,45.551L23.132,45.775C23.218,45.839 23.304,45.904 23.389,45.979C23.475,46.053 23.55,46.139 23.625,46.235C23.699,46.332 23.753,46.449 23.796,46.578C23.839,46.706 23.86,46.856 23.86,47.027C23.86,47.466 23.764,47.787 23.56,48.012C23.357,48.236 23.068,48.354 22.683,48.354C22.501,48.354 22.308,48.333 22.105,48.29C21.902,48.258 21.72,48.215 21.559,48.161C21.367,48.108 21.174,48.044 20.992,47.979L20.843,48.835C21.014,48.9 21.196,48.964 21.388,49.017C21.549,49.071 21.752,49.114 21.977,49.146C22.201,49.189 22.448,49.21 22.694,49.21C22.972,49.21 23.239,49.167 23.507,49.092C23.764,49.017 23.988,48.889 24.192,48.718C24.395,48.547 24.555,48.322 24.673,48.033C24.791,47.755 24.855,47.412 24.855,47.006C24.855,46.706 24.823,46.46 24.759,46.257C24.684,46.053 24.598,45.872 24.491,45.711C24.384,45.561 24.267,45.422 24.127,45.304C23.988,45.187 23.849,45.069 23.71,44.962L23.378,44.705C23.282,44.63 23.186,44.555 23.1,44.481C23.004,44.406 22.929,44.32 22.865,44.224C22.801,44.127 22.747,44.02 22.715,43.903C22.672,43.785 22.651,43.646 22.651,43.475C22.651,43.282 22.683,43.111 22.758,42.972C22.822,42.822 22.908,42.704 23.025,42.608C23.143,42.512 23.271,42.437 23.421,42.394C23.571,42.341 23.721,42.319 23.881,42.319C24.063,42.319 24.245,42.341 24.416,42.373C24.577,42.415 24.727,42.458 24.866,42.501C25.026,42.565 25.165,42.629 25.304,42.704L25.444,41.891Z" style="fill:rgb(8,59,111);fill-rule:nonzero;"/>
            <path d="M29.874,46.599C29.777,46.974 29.649,47.295 29.488,47.562C29.317,47.84 29.135,48.054 28.921,48.215C28.707,48.375 28.472,48.461 28.226,48.461C27.926,48.461 27.691,48.354 27.498,48.129C27.316,47.915 27.22,47.551 27.22,47.038C27.22,46.599 27.274,46.203 27.37,45.839C27.466,45.476 27.595,45.165 27.755,44.898C27.926,44.63 28.108,44.427 28.322,44.277C28.536,44.138 28.772,44.063 29.007,44.063C29.349,44.063 29.617,44.16 29.777,44.363C29.938,44.566 30.023,44.919 30.023,45.411C30.023,45.829 29.97,46.225 29.874,46.599ZM30.805,44.427C30.687,44.149 30.537,43.924 30.355,43.764C30.173,43.603 29.959,43.485 29.735,43.421C29.499,43.357 29.264,43.325 29.018,43.325C28.622,43.325 28.258,43.411 27.926,43.592C27.584,43.774 27.295,44.031 27.049,44.363C26.803,44.695 26.599,45.09 26.46,45.551C26.321,46.011 26.246,46.514 26.246,47.059C26.246,47.477 26.3,47.83 26.407,48.108C26.514,48.386 26.664,48.611 26.846,48.771C27.027,48.932 27.231,49.049 27.466,49.114C27.691,49.178 27.937,49.21 28.194,49.21C28.611,49.21 28.986,49.114 29.328,48.932C29.67,48.75 29.959,48.493 30.205,48.161C30.451,47.83 30.633,47.434 30.772,46.974C30.912,46.514 30.976,46.021 30.976,45.476C30.976,45.058 30.922,44.705 30.805,44.427Z" style="fill:rgb(8,59,111);fill-rule:nonzero;"/>
            <path d="M34.667,41.399L33.704,41.399L32.345,49.103L33.308,49.103L34.667,41.399Z" style="fill:rgb(8,59,111);fill-rule:nonzero;"/>
            <path d="M40.713,43.432L39.75,43.432L39.183,46.674C38.99,46.984 38.787,47.263 38.573,47.509C38.391,47.712 38.177,47.905 37.952,48.076C37.728,48.258 37.492,48.343 37.257,48.343C37.118,48.343 37.011,48.311 36.947,48.236C36.872,48.172 36.829,48.076 36.807,47.958C36.786,47.84 36.786,47.691 36.807,47.53C36.829,47.37 36.85,47.188 36.882,46.995L37.503,43.432L36.54,43.432L35.887,47.209C35.844,47.455 35.823,47.691 35.823,47.937C35.812,48.183 35.855,48.397 35.93,48.579C36.005,48.761 36.133,48.91 36.315,49.028C36.497,49.146 36.743,49.21 37.075,49.21C37.396,49.21 37.685,49.135 37.931,48.975C38.177,48.814 38.391,48.643 38.552,48.461C38.744,48.236 38.915,47.99 39.054,47.723L38.915,49.103L39.718,49.103L40.713,43.432Z" style="fill:rgb(8,59,111);fill-rule:nonzero;"/>
            <path d="M45.41,43.432L44.126,43.432L44.436,41.72L43.441,42.148L43.163,43.432L42.2,43.432L42.071,44.17L43.034,44.17L42.403,47.787C42.36,48.044 42.36,48.258 42.392,48.44C42.425,48.621 42.489,48.771 42.585,48.889C42.681,49.007 42.799,49.082 42.96,49.135C43.12,49.189 43.302,49.21 43.505,49.21C43.666,49.21 43.805,49.199 43.944,49.167C44.083,49.146 44.201,49.114 44.308,49.082C44.436,49.049 44.554,49.007 44.661,48.964L44.8,48.14C44.682,48.193 44.554,48.236 44.425,48.268C44.318,48.3 44.211,48.333 44.094,48.354C43.976,48.386 43.88,48.397 43.794,48.397C43.591,48.397 43.452,48.343 43.398,48.247C43.334,48.151 43.323,48.012 43.355,47.819L43.997,44.17L45.174,44.17L45.41,43.432Z" style="fill:rgb(8,59,111);fill-rule:nonzero;"/>
            <path d="M47.967,43.432L47.004,43.432L46.009,49.103L46.972,49.103L47.967,43.432ZM48.202,41.474C48.085,41.356 47.935,41.292 47.753,41.292C47.571,41.292 47.421,41.356 47.304,41.474C47.186,41.602 47.122,41.752 47.122,41.934C47.122,42.116 47.186,42.266 47.304,42.383C47.421,42.512 47.571,42.576 47.753,42.576C47.935,42.576 48.085,42.512 48.202,42.383C48.32,42.266 48.384,42.116 48.384,41.934C48.384,41.752 48.32,41.602 48.202,41.474Z" style="fill:rgb(8,59,111);fill-rule:nonzero;"/>
            <path d="M52.922,46.599C52.825,46.974 52.697,47.295 52.536,47.562C52.365,47.84 52.183,48.054 51.969,48.215C51.755,48.375 51.52,48.461 51.274,48.461C50.974,48.461 50.739,48.354 50.546,48.129C50.364,47.915 50.268,47.551 50.268,47.038C50.268,46.599 50.321,46.203 50.418,45.839C50.514,45.476 50.642,45.165 50.803,44.898C50.974,44.63 51.156,44.427 51.37,44.277C51.584,44.138 51.819,44.063 52.055,44.063C52.397,44.063 52.665,44.16 52.825,44.363C52.986,44.566 53.071,44.919 53.071,45.411C53.071,45.829 53.018,46.225 52.922,46.599ZM53.852,44.427C53.735,44.149 53.585,43.924 53.403,43.764C53.221,43.603 53.007,43.485 52.782,43.421C52.547,43.357 52.312,43.325 52.066,43.325C51.67,43.325 51.306,43.411 50.974,43.592C50.632,43.774 50.343,44.031 50.097,44.363C49.851,44.695 49.647,45.09 49.508,45.551C49.369,46.011 49.294,46.514 49.294,47.059C49.294,47.477 49.348,47.83 49.455,48.108C49.562,48.386 49.712,48.611 49.893,48.771C50.075,48.932 50.279,49.049 50.514,49.114C50.739,49.178 50.985,49.21 51.242,49.21C51.659,49.21 52.033,49.114 52.376,48.932C52.718,48.75 53.007,48.493 53.253,48.161C53.499,47.83 53.681,47.434 53.82,46.974C53.959,46.514 54.024,46.021 54.024,45.476C54.024,45.058 53.97,44.705 53.852,44.427Z" style="fill:rgb(8,59,111);fill-rule:nonzero;"/>
            <path d="M60.55,45.016C60.647,44.481 60.593,44.063 60.39,43.764C60.187,43.475 59.833,43.325 59.331,43.325C59.02,43.325 58.731,43.4 58.464,43.539C58.196,43.689 57.972,43.86 57.779,44.042C57.554,44.256 57.351,44.502 57.169,44.769L57.244,43.432L56.442,43.432L55.446,49.103L56.409,49.103L56.987,45.829C57.191,45.518 57.415,45.24 57.64,45.005C57.736,44.909 57.843,44.802 57.961,44.705C58.068,44.609 58.186,44.513 58.303,44.438C58.421,44.363 58.539,44.309 58.667,44.256C58.785,44.213 58.913,44.192 59.042,44.192C59.288,44.192 59.448,44.245 59.545,44.363C59.641,44.481 59.652,44.684 59.598,44.973L58.87,49.103L59.833,49.103L60.55,45.016Z" style="fill:rgb(8,59,111);fill-rule:nonzero;"/>
            <path d="M65.676,43.721C65.558,43.646 65.419,43.571 65.28,43.518C65.162,43.464 65.012,43.421 64.841,43.378C64.67,43.346 64.477,43.325 64.274,43.325C64.039,43.325 63.803,43.357 63.568,43.411C63.332,43.464 63.118,43.56 62.936,43.689C62.744,43.817 62.594,43.988 62.476,44.192C62.359,44.406 62.294,44.662 62.294,44.962C62.294,45.165 62.327,45.347 62.391,45.497C62.455,45.658 62.541,45.797 62.637,45.925C62.733,46.043 62.84,46.15 62.958,46.235C63.076,46.321 63.183,46.407 63.3,46.471L63.835,46.77C63.996,46.856 64.113,46.952 64.199,47.081C64.285,47.198 64.327,47.38 64.327,47.626C64.327,47.872 64.253,48.065 64.092,48.193C63.932,48.333 63.718,48.397 63.429,48.397C63.268,48.397 63.097,48.375 62.915,48.333C62.733,48.29 62.562,48.247 62.401,48.193C62.22,48.14 62.038,48.076 61.856,48.001L61.727,48.803C61.888,48.878 62.07,48.942 62.252,49.007C62.412,49.071 62.594,49.114 62.797,49.156C63.001,49.189 63.215,49.21 63.439,49.21C63.707,49.21 63.942,49.178 64.167,49.114C64.392,49.039 64.584,48.932 64.745,48.793C64.905,48.654 65.023,48.472 65.119,48.247C65.216,48.022 65.258,47.755 65.258,47.444C65.258,47.263 65.237,47.102 65.183,46.952C65.13,46.813 65.066,46.685 64.991,46.578C64.916,46.471 64.82,46.364 64.713,46.278C64.606,46.193 64.499,46.118 64.381,46.053L63.803,45.722C63.75,45.679 63.685,45.647 63.621,45.604C63.546,45.561 63.482,45.508 63.429,45.444C63.375,45.39 63.322,45.315 63.29,45.23C63.247,45.144 63.225,45.037 63.225,44.93C63.225,44.78 63.257,44.652 63.311,44.555C63.364,44.459 63.439,44.374 63.536,44.309C63.621,44.256 63.728,44.213 63.846,44.181C63.964,44.149 64.092,44.138 64.22,44.138C64.381,44.138 64.531,44.16 64.691,44.192C64.852,44.224 64.991,44.267 65.119,44.309C65.269,44.352 65.408,44.416 65.547,44.481L65.676,43.721Z" style="fill:rgb(8,59,111);fill-rule:nonzero;"/>
        </g>
    </g>
</svg>
