<?xml version="1.0" encoding="UTF-8"?>
<svg width="433px" height="115px" xmlns="http://www.w3.org/2000/svg" xmlns:xlink="http://www.w3.org/1999/xlink" version="1.1" id="logo-mobile" x="0px" y="0px" viewBox="66.19999694824219 202.59999084472656 708.699951171875 188.6999969482422" style="enable-background:new 0 0 841.9 595.3;" xml:space="preserve">
<style type="text/css">
	.logo-mobile-st0{fill:#005EB8;}
	.logo-mobile-st1{fill:#2C2A29;}
</style>
<g>
	<g>
		<path class="logo-mobile-st0" d="M267.1,363.3c9.2,0,13.4,4.5,13.4,14c0,9.5-4.3,14-13.4,14c-9.3,0-13.4-4.5-13.4-14.3    C253.7,367.8,258.1,363.3,267.1,363.3z M259.9,377.1c0,6.6,2.2,9.6,7.2,9.6c5,0,7.3-3,7.3-9.4c0-6.3-2.3-9.4-7.3-9.4    C262.3,367.9,259.9,370.9,259.9,377.1z"></path>
		<path class="logo-mobile-st0" d="M299.6,363.8c3.7,0,6.3,0.3,7.9,1.3c2.4,1.5,3.7,4.1,3.7,7.4c0,3.2-1,5.5-3.1,7c-2.3,1.6-4.9,1.7-8.3,1.7    h-6.9v9.4h-5.7v-26.9H299.6z M292.9,368.6v8h7.5c3.4,0,5.1-1.3,5.1-4c0-3-1.7-4-5.4-4H292.9z"></path>
		<path class="logo-mobile-st0" d="M407.4,363.8c3.7,0,6.3,0.3,7.9,1.3c2.4,1.5,3.7,4.1,3.7,7.4c0,3.2-1,5.5-3.1,7c-2.3,1.6-4.9,1.7-8.3,1.7    h-6.9v9.4h-5.7v-26.9H407.4z M400.7,368.6v8h7.5c3.4,0,5.1-1.3,5.1-4c0-3-1.7-4-5.4-4H400.7z"></path>
		<path class="logo-mobile-st0" d="M354.5,363.8l11,19.3l-0.3-19.3h5.8v26.9h-6.6l-11.6-20.4l0.3,20.4h-5.8v-26.9H354.5z"></path>
		<path class="logo-mobile-st0" d="M437.7,363.3c9.1,0,13.4,4.5,13.4,14c0,9.5-4.3,14-13.4,14c-9.3,0-13.4-4.5-13.4-14.3    C424.2,367.8,428.6,363.3,437.7,363.3z M430.4,377.1c0,6.6,2.2,9.6,7.2,9.6c5,0,7.3-3,7.3-9.4c0-6.3-2.3-9.4-7.3-9.4    C432.8,367.9,430.4,370.9,430.4,377.1z"></path>
		<path class="logo-mobile-st0" d="M466.7,368.6c-3,0-4.4,1.1-4.4,3.5c0,1.9,1.2,2.9,3.6,2.9h7.5c6,0,8.6,2,8.6,7.6c0,5.7-3,8.1-9.4,8.1h-15.1    v-4.8h14.2c3,0,4.4-0.7,4.4-3c0-2.4-1.3-3.1-4-3.1h-6.7c-6.2,0-9-2.3-9-7.7c0-5.9,3-8.3,9.5-8.3h14.8v4.8H466.7z"></path>
		<path class="logo-mobile-st0" d="M497.3,368.6c-3,0-4.4,1.1-4.4,3.5c0,1.9,1.2,2.9,3.6,2.9h7.5c6,0,8.6,2,8.6,7.6c0,5.7-3,8.1-9.4,8.1h-15.1    v-4.8h14.2c3,0,4.4-0.7,4.4-3c0-2.4-1.3-3.1-4-3.1H496c-6.1,0-9-2.3-9-7.7c0-5.9,3-8.3,9.4-8.3h14.8v4.8H497.3z"></path>
		<path class="logo-mobile-st0" d="M533.7,390.7v-26.9h13.8c3.1,0,5.4,0.3,6.9,1.2c1.9,1.2,3,3.2,3,5.8c0,3-1.2,5-4,6.5c2.7,1.2,4.1,3.1,4.1,6.1    c0,5.1-2.9,7.4-9,7.4H533.7z M539.4,374.9h8.6c2.5,0,3.7-0.9,3.7-3.1c0-2.2-1.2-3.1-3.7-3.1h-8.6V374.9z M551.8,382.8    c0-2.2-1.2-3.2-3.7-3.2h-8.6v6.3h8.6C550.6,386,551.8,385.1,551.8,382.8z"></path>
		<path class="logo-mobile-st0" d="M565,390.7v-26.9h5.4v26.9H565z"></path>
		<path class="logo-mobile-st0" d="M581,387.9c-2.1-2.2-2.4-4.5-2.4-8.1v-16h5.6v14.8c0,0.4,0,0.7,0,1.1c0,2.2,0,3.8,0.9,4.9    c1.2,1.4,2.8,1.8,5.2,1.8h6.7v4.5h-7.2C586,390.7,583.4,390.5,581,387.9z"></path>
		<path class="logo-mobile-st0" d="M603,390.7v-26.9h5.4v26.9H603z"></path>
		<path class="logo-mobile-st0" d="M614.7,368.5v-4.7H638v4.7h-8.7v22.2h-5.8v-22.2H614.7z"></path>
		<path class="logo-mobile-st0" d="M644.2,390.7v-26.9h5.4v26.9H644.2z"></path>
		<path class="logo-mobile-st0" d="M696.6,368.6c-3,0-4.4,1.1-4.4,3.5c0,1.9,1.2,2.9,3.6,2.9h7.5c6,0,8.6,2,8.6,7.6c0,5.7-3,8.1-9.4,8.1h-15.1    v-4.8h14.2c3,0,4.4-0.7,4.4-3c0-2.4-1.3-3.1-4-3.1h-6.7c-6.2,0-9-2.3-9-7.7c0-5.9,3-8.3,9.4-8.3h14.8v4.8H696.6z"></path>
		<path class="logo-mobile-st0" d="M328.5,368.6h11.3v-4.7h-10.9c-8.6,0-13.1,3.5-13.1,13.5c0,10,4.4,13.5,13.1,13.5h10.9V386h-11.3    c-4.4,0-6-2-6-6.4h16.2v-4.7h-16.2C322.6,370.6,324.1,368.6,328.5,368.6z"></path>
		<path class="logo-mobile-st0" d="M669.3,368.6h11.3v-4.7h-10.9c-8.6,0-13.1,3.5-13.1,13.5c0,10,4.4,13.5,13.1,13.5h10.9V386h-11.3    c-4.5,0-5.9-2-5.9-6.4h16.2v-4.7h-16.2C663.4,370.6,664.9,368.6,669.3,368.6z"></path>
		<rect x="519.8" y="363.8" class="logo-mobile-st0" width="5.4" height="26.9"></rect>
	</g>
	<g>
		<g>
			<path class="logo-mobile-st1" d="M248.9,320c-15.4,0-27.9-11.9-27.9-27.7c0-15.8,12.5-27.7,27.9-27.7c15.4,0,27.9,11.9,27.9,27.7     C276.8,308.2,264.3,320,248.9,320 M248.9,244.2c-30.9,0-55.8,17.4-55.8,48.2c0,30.8,25,48.2,55.8,48.2     c30.8,0,55.8-18.7,55.8-48.2C304.7,261.6,279.7,244.2,248.9,244.2"></path>
			<rect x="315.4" y="245.1" class="logo-mobile-st1" width="28.6" height="91.6"></rect>
			<polygon class="logo-mobile-st1" points="376.4,289.5 409,245.1 376.5,245.1 346.4,289.5 377.9,336.8 412.7,336.8    "></polygon>
			<polygon class="logo-mobile-st1" points="602,336.8 622.6,270.9 622.6,336.8 645.8,336.8 645.8,245.1 605.1,245.1 589.7,299.3 574.1,245.1     533.7,245.1 533.7,336.8 556.9,336.8 556.9,270.9 577.2,336.8    "></polygon>
			<path class="logo-mobile-st1" d="M487.5,245.1h30.6v56.9c0,30.6-21.8,38-48.7,38c-26.9,0-48.7-7.4-48.7-38v-56.9h30.6v59.2     c0,8.7,7.8,15.8,18.1,15.8c10.3,0,18.1-7.1,18.1-15.8V245.1z"></path>
			<path class="logo-mobile-st1" d="M702.6,290.1l11.5-29.3l11.4,29.3H702.6z M743.8,336.8h31.1l-43.3-91.6h-35.4L653,336.8h31.1l11.2-28.3h37.4     L743.8,336.8z"></path>
		</g>
		<g>
			<path class="logo-mobile-st0" d="M182.4,330.9h-29.2c-27.8,0-27.1-37.5-27.1-37.5v-90.8h-12.7v100.3c0,0-3.5,60.9,44.2,60.9h29.7L182.4,330.9     z"></path>
			<path class="logo-mobile-st0" d="M125.6,352.6c-6.7-7.7-10.3-17.5-12.2-25.8c0,0-6.3,4.2-13,4.2H71.1l-4.9,32.9H96h0.8     C109.9,363.8,119.1,359.2,125.6,352.6"></path>
			<path class="logo-mobile-st0" d="M141,202.6v100.3l0,1.1c0.1,2.8,0,10.7-1.8,19.9l0,0c-0.4-0.4-0.9-0.8-1.3-1.2c-9.8-10-9.6-29-9.6-29.2v0     v-90.8H141z"></path>
		</g>
	</g>
</g>
</svg>
